<?xml version="1.0" encoding="utf-8"?>
<!-- Generator: Adobe Illustrator 26.3.1, SVG Export Plug-In . SVG Version: 6.00 Build 0)  -->
<svg version="1.1" id="Layer_1" xmlns="http://www.w3.org/2000/svg" xmlns:xlink="http://www.w3.org/1999/xlink" x="0px" y="0px"
	 viewBox="0 0 160 160" style="enable-background:new 0 0 160 160;" xml:space="preserve">
<style type="text/css">
	.st0{opacity:0.2;fill:none;stroke:#000000;stroke-width:11;stroke-miterlimit:10;}
	.st1{fill:#99992E;}
	.st2{fill:#5FCC29;}
	.st3{fill:#800000;}
	.st4{opacity:0.2;fill:none;stroke:#000000;stroke-width:8;stroke-miterlimit:10;}
	.st5{fill:none;stroke:#FFFFFF;stroke-width:8;stroke-miterlimit:10;}
	.st6{opacity:0.2;}
	.st7{fill:#FFFFFF;}
</style>
<g>
	<circle class="st0" cx="80" cy="80" r="67.19"/>
	<circle class="st1" cx="80" cy="80" r="67.19"/>
	<path class="st2" d="M108.47,19.14c-8.65-4.05-18.29-6.33-28.47-6.33c-37.11,0-67.19,30.08-67.19,67.19
		c0,10.18,2.28,19.82,6.33,28.47L108.47,19.14z"/>
	<path class="st3" d="M142.91,56.4L56.4,142.91c7.35,2.76,15.3,4.28,23.6,4.28c37.11,0,67.19-30.08,67.19-67.19
		C147.19,71.69,145.67,63.74,142.91,56.4z"/>
	<path class="st4" d="M28.91,123.39c-9.32-11.53-14.9-26.21-14.9-42.19c0-37.11,30.08-67.19,67.19-67.19
		c17.99,0,34.33,7.07,46.39,18.59"/>
	<circle class="st5" cx="80" cy="80" r="67.19"/>
	<path class="st6" d="M33.04,103.37c0.05-12.23,2.44-21.64,7.18-28.22c4.74-6.58,11.76-9.87,21.06-9.87c3.07,0,5.77,0.31,8.09,0.93
		c2.33,0.62,4.41,1.46,6.26,2.51c1.99,1.16,3.66,2.37,5.01,3.61c1.35,1.24,2.82,2.64,4.4,4.19c1.31,1.32,2.55,2.65,3.72,3.99
		c1.17,1.34,2.37,2.57,3.59,3.7c1.08,1.01,2.29,1.87,3.62,2.59s2.63,1.08,3.89,1.08c2.53,0,4.47-0.53,5.82-1.6
		c1.35-1.07,2.44-2.61,3.25-4.63c0.77-2.14,1.25-4.64,1.46-7.51c0.2-2.87,0.37-5.86,0.51-8.97h17.6c0,12.58-2.41,22.08-7.24,28.49
		c-4.83,6.41-11.83,9.61-20.99,9.61c-2.98,0-5.64-0.32-7.99-0.96c-2.35-0.64-4.51-1.51-6.5-2.59c-1.9-1.05-3.67-2.31-5.32-3.79
		c-1.65-1.48-3.01-2.78-4.1-3.9c-1.22-1.32-2.45-2.67-3.69-4.05c-1.24-1.38-2.45-2.59-3.62-3.64c-1.17-1.09-2.37-1.97-3.59-2.65
		c-1.22-0.68-2.48-1.02-3.79-1.02c-2.44,0-4.38,0.54-5.82,1.63c-1.44,1.09-2.53,2.62-3.25,4.6c-0.77,2.14-1.26,4.64-1.49,7.52
		c-0.23,2.87-0.38,5.86-0.47,8.97H33.04z"/>
	<path class="st7" d="M32.14,102.17c0.05-12.23,2.44-21.64,7.18-28.22c4.74-6.58,11.76-9.87,21.06-9.87c3.07,0,5.77,0.31,8.09,0.93
		c2.33,0.62,4.41,1.46,6.26,2.51c1.99,1.16,3.66,2.37,5.01,3.61c1.35,1.24,2.82,2.64,4.4,4.19c1.31,1.32,2.55,2.65,3.72,3.99
		c1.17,1.34,2.37,2.57,3.59,3.7c1.08,1.01,2.29,1.87,3.62,2.59c1.33,0.72,2.63,1.08,3.89,1.08c2.53,0,4.47-0.53,5.82-1.6
		c1.35-1.07,2.44-2.61,3.25-4.63c0.77-2.14,1.25-4.64,1.46-7.51c0.2-2.87,0.37-5.86,0.51-8.97h17.6c0,12.58-2.41,22.08-7.24,28.49
		c-4.83,6.41-11.83,9.61-20.99,9.61c-2.98,0-5.64-0.32-7.99-0.96c-2.35-0.64-4.51-1.51-6.5-2.59c-1.9-1.05-3.67-2.31-5.32-3.79
		c-1.65-1.48-3.01-2.78-4.1-3.9c-1.22-1.32-2.45-2.67-3.69-4.05c-1.24-1.38-2.45-2.59-3.62-3.64c-1.17-1.09-2.37-1.97-3.59-2.65
		c-1.22-0.68-2.48-1.02-3.79-1.02c-2.44,0-4.38,0.54-5.82,1.63c-1.44,1.09-2.53,2.62-3.25,4.6c-0.77,2.14-1.26,4.64-1.49,7.52
		c-0.23,2.87-0.38,5.86-0.47,8.97H32.14z"/>
</g>
</svg>
